<?xml version="1.0" encoding="UTF-8" standalone="no"?>
<!DOCTYPE svg PUBLIC "-//W3C//DTD SVG 1.1//EN"
 "http://www.w3.org/Graphics/SVG/1.1/DTD/svg11.dtd">
<!-- Generated by graphviz version 2.40.1 (20161225.0304)
 -->
<!-- Title: G Pages: 1 -->
<svg width="314pt" height="267pt"
 viewBox="0.00 0.00 314.00 267.00" xmlns="http://www.w3.org/2000/svg" xmlns:xlink="http://www.w3.org/1999/xlink">
<g id="graph0" class="graph" transform="scale(1 1) rotate(0) translate(4 263)">
<title>G</title>
<polygon fill="#ffffff" stroke="transparent" points="-4,4 -4,-263 310,-263 310,4 -4,4"/>
<g id="clust1" class="cluster">
<title>cluster_0</title>
<polygon fill="none" stroke="transparent" points="8,-29 8,-230 61,-230 61,-29 8,-29"/>
<text text-anchor="middle" x="34.5" y="-214.8" font-family="Hilda 10" font-size="14.00" fill="#000000">Input</text>
</g>
<g id="clust2" class="cluster">
<title>cluster_1</title>
<polygon fill="none" stroke="#c0c0c0" points="117,-8 117,-251 184,-251 184,-8 117,-8"/>
<text text-anchor="middle" x="150.5" y="-235.8" font-family="Hilda 10" font-size="14.00" fill="#000000">Hidden</text>
</g>
<g id="clust3" class="cluster">
<title>cluster_2</title>
<polygon fill="none" stroke="transparent" points="240,-50 240,-209 305,-209 305,-50 240,-50"/>
<text text-anchor="middle" x="272.5" y="-193.8" font-family="Hilda 10" font-size="14.00" fill="#000000">Output</text>
</g>
<!-- l10 -->
<g id="node1" class="node">
<title>l10</title>
<ellipse fill="#000000" stroke="#ffffff" stroke-width="15" cx="34" cy="-181" rx="18" ry="18"/>
</g>
<!-- l20 -->
<g id="node5" class="node">
<title>l20</title>
<ellipse fill="#ff0000" stroke="#ffffff" stroke-width="15" cx="150" cy="-76" rx="18" ry="18"/>
</g>
<!-- l10&#45;&gt;l20 -->
<g id="edge1" class="edge">
<title>l10&#45;&gt;l20</title>
<path fill="none" stroke="#000000" d="M47.7622,-168.5428C68.98,-149.337 109.6441,-112.529 132.7813,-91.5859"/>
<polygon fill="#000000" stroke="#000000" points="134.0811,-92.7698 136.6137,-88.1169 131.7323,-90.1749 134.0811,-92.7698"/>
</g>
<!-- l21 -->
<g id="node6" class="node">
<title>l21</title>
<ellipse fill="#ff0000" stroke="#ffffff" stroke-width="15" cx="150" cy="-34" rx="18" ry="18"/>
</g>
<!-- l10&#45;&gt;l21 -->
<g id="edge2" class="edge">
<title>l10&#45;&gt;l21</title>
<path fill="none" stroke="#000000" d="M45.3338,-166.6374C66.5251,-139.7829 112.1151,-82.0093 135.5064,-52.3668"/>
<polygon fill="#000000" stroke="#000000" points="137.0674,-53.2137 138.791,-48.2045 134.3198,-51.0455 137.0674,-53.2137"/>
</g>
<!-- l22 -->
<g id="node7" class="node">
<title>l22</title>
<ellipse fill="#ff0000" stroke="#ffffff" stroke-width="15" cx="150" cy="-202" rx="18" ry="18"/>
</g>
<!-- l10&#45;&gt;l22 -->
<g id="edge3" class="edge">
<title>l10&#45;&gt;l22</title>
<path fill="none" stroke="#000000" d="M51.8708,-184.2352C71.9926,-187.878 104.7536,-193.8088 126.8271,-197.8049"/>
<polygon fill="#000000" stroke="#000000" points="126.686,-199.5577 131.9178,-198.7265 127.3095,-196.1137 126.686,-199.5577"/>
</g>
<!-- l23 -->
<g id="node8" class="node">
<title>l23</title>
<ellipse fill="#ff0000" stroke="#ffffff" stroke-width="15" cx="150" cy="-160" rx="18" ry="18"/>
</g>
<!-- l10&#45;&gt;l23 -->
<g id="edge4" class="edge">
<title>l10&#45;&gt;l23</title>
<path fill="none" stroke="#000000" d="M51.8708,-177.7648C71.9926,-174.122 104.7536,-168.1912 126.8271,-164.1951"/>
<polygon fill="#000000" stroke="#000000" points="127.3095,-165.8863 131.9178,-163.2735 126.686,-162.4423 127.3095,-165.8863"/>
</g>
<!-- l24 -->
<g id="node9" class="node">
<title>l24</title>
<ellipse fill="#ff0000" stroke="#ffffff" stroke-width="15" cx="150" cy="-118" rx="18" ry="18"/>
</g>
<!-- l10&#45;&gt;l24 -->
<g id="edge5" class="edge">
<title>l10&#45;&gt;l24</title>
<path fill="none" stroke="#000000" d="M50.1293,-172.2401C70.8197,-161.0031 106.7319,-141.499 129.3852,-129.196"/>
<polygon fill="#000000" stroke="#000000" points="130.4491,-130.6097 134.0077,-126.6855 128.7786,-127.534 130.4491,-130.6097"/>
</g>
<!-- l11 -->
<g id="node2" class="node">
<title>l11</title>
<ellipse fill="#000000" stroke="#ffffff" stroke-width="15" cx="34" cy="-139" rx="18" ry="18"/>
</g>
<!-- l11&#45;&gt;l20 -->
<g id="edge6" class="edge">
<title>l11&#45;&gt;l20</title>
<path fill="none" stroke="#000000" d="M50.1293,-130.2401C70.8197,-119.0031 106.7319,-99.499 129.3852,-87.196"/>
<polygon fill="#000000" stroke="#000000" points="130.4491,-88.6097 134.0077,-84.6855 128.7786,-85.534 130.4491,-88.6097"/>
</g>
<!-- l11&#45;&gt;l21 -->
<g id="edge7" class="edge">
<title>l11&#45;&gt;l21</title>
<path fill="none" stroke="#000000" d="M47.7622,-126.5428C68.98,-107.337 109.6441,-70.529 132.7813,-49.5859"/>
<polygon fill="#000000" stroke="#000000" points="134.0811,-50.7698 136.6137,-46.1169 131.7323,-48.1749 134.0811,-50.7698"/>
</g>
<!-- l11&#45;&gt;l22 -->
<g id="edge8" class="edge">
<title>l11&#45;&gt;l22</title>
<path fill="none" stroke="#000000" d="M50.1293,-147.7599C70.8197,-158.9969 106.7319,-178.501 129.3852,-190.804"/>
<polygon fill="#000000" stroke="#000000" points="128.7786,-192.466 134.0077,-193.3145 130.4491,-189.3903 128.7786,-192.466"/>
</g>
<!-- l11&#45;&gt;l23 -->
<g id="edge9" class="edge">
<title>l11&#45;&gt;l23</title>
<path fill="none" stroke="#000000" d="M51.8708,-142.2352C71.9926,-145.878 104.7536,-151.8088 126.8271,-155.8049"/>
<polygon fill="#000000" stroke="#000000" points="126.686,-157.5577 131.9178,-156.7265 127.3095,-154.1137 126.686,-157.5577"/>
</g>
<!-- l11&#45;&gt;l24 -->
<g id="edge10" class="edge">
<title>l11&#45;&gt;l24</title>
<path fill="none" stroke="#000000" d="M51.8708,-135.7648C71.9926,-132.122 104.7536,-126.1912 126.8271,-122.1951"/>
<polygon fill="#000000" stroke="#000000" points="127.3095,-123.8863 131.9178,-121.2735 126.686,-120.4423 127.3095,-123.8863"/>
</g>
<!-- l12 -->
<g id="node3" class="node">
<title>l12</title>
<ellipse fill="#000000" stroke="#ffffff" stroke-width="15" cx="34" cy="-97" rx="18" ry="18"/>
</g>
<!-- l12&#45;&gt;l20 -->
<g id="edge11" class="edge">
<title>l12&#45;&gt;l20</title>
<path fill="none" stroke="#000000" d="M51.8708,-93.7648C71.9926,-90.122 104.7536,-84.1912 126.8271,-80.1951"/>
<polygon fill="#000000" stroke="#000000" points="127.3095,-81.8863 131.9178,-79.2735 126.686,-78.4423 127.3095,-81.8863"/>
</g>
<!-- l12&#45;&gt;l21 -->
<g id="edge12" class="edge">
<title>l12&#45;&gt;l21</title>
<path fill="none" stroke="#000000" d="M50.1293,-88.2401C70.8197,-77.0031 106.7319,-57.499 129.3852,-45.196"/>
<polygon fill="#000000" stroke="#000000" points="130.4491,-46.6097 134.0077,-42.6855 128.7786,-43.534 130.4491,-46.6097"/>
</g>
<!-- l12&#45;&gt;l22 -->
<g id="edge13" class="edge">
<title>l12&#45;&gt;l22</title>
<path fill="none" stroke="#000000" d="M47.7622,-109.4572C68.98,-128.663 109.6441,-165.471 132.7813,-186.4141"/>
<polygon fill="#000000" stroke="#000000" points="131.7323,-187.8251 136.6137,-189.8831 134.0811,-185.2302 131.7323,-187.8251"/>
</g>
<!-- l12&#45;&gt;l23 -->
<g id="edge14" class="edge">
<title>l12&#45;&gt;l23</title>
<path fill="none" stroke="#000000" d="M50.1293,-105.7599C70.8197,-116.9969 106.7319,-136.501 129.3852,-148.804"/>
<polygon fill="#000000" stroke="#000000" points="128.7786,-150.466 134.0077,-151.3145 130.4491,-147.3903 128.7786,-150.466"/>
</g>
<!-- l12&#45;&gt;l24 -->
<g id="edge15" class="edge">
<title>l12&#45;&gt;l24</title>
<path fill="none" stroke="#000000" d="M51.8708,-100.2352C71.9926,-103.878 104.7536,-109.8088 126.8271,-113.8049"/>
<polygon fill="#000000" stroke="#000000" points="126.686,-115.5577 131.9178,-114.7265 127.3095,-112.1137 126.686,-115.5577"/>
</g>
<!-- l13 -->
<g id="node4" class="node">
<title>l13</title>
<ellipse fill="#000000" stroke="#ffffff" stroke-width="15" cx="34" cy="-55" rx="18" ry="18"/>
</g>
<!-- l13&#45;&gt;l20 -->
<g id="edge16" class="edge">
<title>l13&#45;&gt;l20</title>
<path fill="none" stroke="#000000" d="M51.8708,-58.2352C71.9926,-61.878 104.7536,-67.8088 126.8271,-71.8049"/>
<polygon fill="#000000" stroke="#000000" points="126.686,-73.5577 131.9178,-72.7265 127.3095,-70.1137 126.686,-73.5577"/>
</g>
<!-- l13&#45;&gt;l21 -->
<g id="edge17" class="edge">
<title>l13&#45;&gt;l21</title>
<path fill="none" stroke="#000000" d="M51.8708,-51.7648C71.9926,-48.122 104.7536,-42.1912 126.8271,-38.1951"/>
<polygon fill="#000000" stroke="#000000" points="127.3095,-39.8863 131.9178,-37.2735 126.686,-36.4423 127.3095,-39.8863"/>
</g>
<!-- l13&#45;&gt;l22 -->
<g id="edge18" class="edge">
<title>l13&#45;&gt;l22</title>
<path fill="none" stroke="#000000" d="M45.3338,-69.3626C66.5251,-96.2171 112.1151,-153.9907 135.5064,-183.6332"/>
<polygon fill="#000000" stroke="#000000" points="134.3198,-184.9545 138.791,-187.7955 137.0674,-182.7863 134.3198,-184.9545"/>
</g>
<!-- l13&#45;&gt;l23 -->
<g id="edge19" class="edge">
<title>l13&#45;&gt;l23</title>
<path fill="none" stroke="#000000" d="M47.7622,-67.4572C68.98,-86.663 109.6441,-123.471 132.7813,-144.4141"/>
<polygon fill="#000000" stroke="#000000" points="131.7323,-145.8251 136.6137,-147.8831 134.0811,-143.2302 131.7323,-145.8251"/>
</g>
<!-- l13&#45;&gt;l24 -->
<g id="edge20" class="edge">
<title>l13&#45;&gt;l24</title>
<path fill="none" stroke="#000000" d="M50.1293,-63.7599C70.8197,-74.9969 106.7319,-94.501 129.3852,-106.804"/>
<polygon fill="#000000" stroke="#000000" points="128.7786,-108.466 134.0077,-109.3145 130.4491,-105.3903 128.7786,-108.466"/>
</g>
<!-- l30 -->
<g id="node10" class="node">
<title>l30</title>
<ellipse fill="#000000" stroke="#ffffff" stroke-width="15" cx="272" cy="-76" rx="18" ry="18"/>
</g>
<!-- l20&#45;&gt;l30 -->
<g id="edge21" class="edge">
<title>l20&#45;&gt;l30</title>
<path fill="none" stroke="#000000" d="M168.0015,-76C189.4458,-76 225.3149,-76 248.8162,-76"/>
<polygon fill="#000000" stroke="#000000" points="248.9247,-77.7501 253.9246,-76 248.9246,-74.2501 248.9247,-77.7501"/>
</g>
<!-- l31 -->
<g id="node11" class="node">
<title>l31</title>
<ellipse fill="#000000" stroke="#ffffff" stroke-width="15" cx="272" cy="-160" rx="18" ry="18"/>
</g>
<!-- l20&#45;&gt;l31 -->
<g id="edge22" class="edge">
<title>l20&#45;&gt;l31</title>
<path fill="none" stroke="#000000" d="M164.9596,-86.3C187.0027,-101.4773 228.2224,-129.8581 252.5755,-146.6258"/>
<polygon fill="#000000" stroke="#000000" points="251.8073,-148.2215 256.918,-149.6157 253.7922,-145.3388 251.8073,-148.2215"/>
</g>
<!-- l32 -->
<g id="node12" class="node">
<title>l32</title>
<ellipse fill="#000000" stroke="#ffffff" stroke-width="15" cx="272" cy="-118" rx="18" ry="18"/>
</g>
<!-- l20&#45;&gt;l32 -->
<g id="edge23" class="edge">
<title>l20&#45;&gt;l32</title>
<path fill="none" stroke="#000000" d="M167.2209,-81.9285C188.9284,-89.4016 226.2692,-102.2566 250.0162,-110.4318"/>
<polygon fill="#000000" stroke="#000000" points="249.5694,-112.1287 254.8667,-112.1017 250.7087,-108.8193 249.5694,-112.1287"/>
</g>
<!-- l21&#45;&gt;l30 -->
<g id="edge24" class="edge">
<title>l21&#45;&gt;l30</title>
<path fill="none" stroke="#000000" d="M167.2209,-39.9285C188.9284,-47.4016 226.2692,-60.2566 250.0162,-68.4318"/>
<polygon fill="#000000" stroke="#000000" points="249.5694,-70.1287 254.8667,-70.1017 250.7087,-66.8193 249.5694,-70.1287"/>
</g>
<!-- l21&#45;&gt;l31 -->
<g id="edge25" class="edge">
<title>l21&#45;&gt;l31</title>
<path fill="none" stroke="#000000" d="M162.5966,-47.0096C184.7876,-69.9281 230.8304,-117.4806 255.5173,-142.9769"/>
<polygon fill="#000000" stroke="#000000" points="254.5538,-144.4976 259.2891,-146.8724 257.0683,-142.0629 254.5538,-144.4976"/>
</g>
<!-- l21&#45;&gt;l32 -->
<g id="edge26" class="edge">
<title>l21&#45;&gt;l32</title>
<path fill="none" stroke="#000000" d="M164.9596,-44.3C187.0027,-59.4773 228.2224,-87.8581 252.5755,-104.6258"/>
<polygon fill="#000000" stroke="#000000" points="251.8073,-106.2215 256.918,-107.6157 253.7922,-103.3388 251.8073,-106.2215"/>
</g>
<!-- l22&#45;&gt;l30 -->
<g id="edge27" class="edge">
<title>l22&#45;&gt;l30</title>
<path fill="none" stroke="#000000" d="M162.5966,-188.9904C184.7876,-166.0719 230.8304,-118.5194 255.5173,-93.0231"/>
<polygon fill="#000000" stroke="#000000" points="257.0683,-93.9371 259.2891,-89.1276 254.5538,-91.5024 257.0683,-93.9371"/>
</g>
<!-- l22&#45;&gt;l31 -->
<g id="edge28" class="edge">
<title>l22&#45;&gt;l31</title>
<path fill="none" stroke="#000000" d="M167.2209,-196.0715C188.9284,-188.5984 226.2692,-175.7434 250.0162,-167.5682"/>
<polygon fill="#000000" stroke="#000000" points="250.7087,-169.1807 254.8667,-165.8983 249.5694,-165.8713 250.7087,-169.1807"/>
</g>
<!-- l22&#45;&gt;l32 -->
<g id="edge29" class="edge">
<title>l22&#45;&gt;l32</title>
<path fill="none" stroke="#000000" d="M164.9596,-191.7C187.0027,-176.5227 228.2224,-148.1419 252.5755,-131.3742"/>
<polygon fill="#000000" stroke="#000000" points="253.7922,-132.6612 256.918,-128.3843 251.8073,-129.7785 253.7922,-132.6612"/>
</g>
<!-- l23&#45;&gt;l30 -->
<g id="edge30" class="edge">
<title>l23&#45;&gt;l30</title>
<path fill="none" stroke="#000000" d="M164.9596,-149.7C187.0027,-134.5227 228.2224,-106.1419 252.5755,-89.3742"/>
<polygon fill="#000000" stroke="#000000" points="253.7922,-90.6612 256.918,-86.3843 251.8073,-87.7785 253.7922,-90.6612"/>
</g>
<!-- l23&#45;&gt;l31 -->
<g id="edge31" class="edge">
<title>l23&#45;&gt;l31</title>
<path fill="none" stroke="#000000" d="M168.0015,-160C189.4458,-160 225.3149,-160 248.8162,-160"/>
<polygon fill="#000000" stroke="#000000" points="248.9247,-161.7501 253.9246,-160 248.9246,-158.2501 248.9247,-161.7501"/>
</g>
<!-- l23&#45;&gt;l32 -->
<g id="edge32" class="edge">
<title>l23&#45;&gt;l32</title>
<path fill="none" stroke="#000000" d="M167.2209,-154.0715C188.9284,-146.5984 226.2692,-133.7434 250.0162,-125.5682"/>
<polygon fill="#000000" stroke="#000000" points="250.7087,-127.1807 254.8667,-123.8983 249.5694,-123.8713 250.7087,-127.1807"/>
</g>
<!-- l24&#45;&gt;l30 -->
<g id="edge33" class="edge">
<title>l24&#45;&gt;l30</title>
<path fill="none" stroke="#000000" d="M167.2209,-112.0715C188.9284,-104.5984 226.2692,-91.7434 250.0162,-83.5682"/>
<polygon fill="#000000" stroke="#000000" points="250.7087,-85.1807 254.8667,-81.8983 249.5694,-81.8713 250.7087,-85.1807"/>
</g>
<!-- l24&#45;&gt;l31 -->
<g id="edge34" class="edge">
<title>l24&#45;&gt;l31</title>
<path fill="none" stroke="#000000" d="M167.2209,-123.9285C188.9284,-131.4016 226.2692,-144.2566 250.0162,-152.4318"/>
<polygon fill="#000000" stroke="#000000" points="249.5694,-154.1287 254.8667,-154.1017 250.7087,-150.8193 249.5694,-154.1287"/>
</g>
<!-- l24&#45;&gt;l32 -->
<g id="edge35" class="edge">
<title>l24&#45;&gt;l32</title>
<path fill="none" stroke="#000000" d="M168.0015,-118C189.4458,-118 225.3149,-118 248.8162,-118"/>
<polygon fill="#000000" stroke="#000000" points="248.9247,-119.7501 253.9246,-118 248.9246,-116.2501 248.9247,-119.7501"/>
</g>
</g>
</svg>
