<?xml version="1.0" encoding="UTF-8" standalone="no"?>
<!DOCTYPE svg PUBLIC "-//W3C//DTD SVG 1.1//EN"
 "http://www.w3.org/Graphics/SVG/1.1/DTD/svg11.dtd">
<!-- Generated by graphviz version 2.40.1 (20161225.0304)
 -->
<!-- Title: G Pages: 1 -->
<svg width="314pt" height="225pt"
 viewBox="0.00 0.00 314.00 225.00" xmlns="http://www.w3.org/2000/svg" xmlns:xlink="http://www.w3.org/1999/xlink">
<g id="graph0" class="graph" transform="scale(1 1) rotate(0) translate(4 221)">
<title>G</title>
<polygon fill="#ffffff" stroke="transparent" points="-4,4 -4,-221 310,-221 310,4 -4,4"/>
<g id="clust1" class="cluster">
<title>cluster_0</title>
<polygon fill="none" stroke="transparent" points="8,-29 8,-188 61,-188 61,-29 8,-29"/>
<text text-anchor="middle" x="34.5" y="-172.8" font-family="Hilda 10" font-size="14.00" fill="#000000">Input</text>
</g>
<g id="clust2" class="cluster">
<title>cluster_1</title>
<polygon fill="none" stroke="transparent" points="117,-8 117,-209 184,-209 184,-8 117,-8"/>
<text text-anchor="middle" x="150.5" y="-193.8" font-family="Hilda 10" font-size="14.00" fill="#000000">Hidden</text>
</g>
<g id="clust3" class="cluster">
<title>cluster_2</title>
<polygon fill="none" stroke="transparent" points="240,-71 240,-146 305,-146 305,-71 240,-71"/>
<text text-anchor="middle" x="272.5" y="-130.8" font-family="Hilda 10" font-size="14.00" fill="#000000">Output</text>
</g>
<!-- l10 -->
<g id="node1" class="node">
<title>l10</title>
<ellipse fill="#000000" stroke="#ffffff" stroke-width="15" cx="34" cy="-97" rx="18" ry="18"/>
</g>
<!-- l20 -->
<g id="node4" class="node">
<title>l20</title>
<ellipse fill="#ff0000" stroke="#ffffff" stroke-width="15" cx="150" cy="-160" rx="18" ry="18"/>
</g>
<!-- l10&#45;&gt;l20 -->
<g id="edge1" class="edge">
<title>l10&#45;&gt;l20</title>
<path fill="none" stroke="#000000" d="M50.1293,-105.7599C70.8197,-116.9969 106.7319,-136.501 129.3852,-148.804"/>
<polygon fill="#000000" stroke="#000000" points="128.7786,-150.466 134.0077,-151.3145 130.4491,-147.3903 128.7786,-150.466"/>
</g>
<!-- l21 -->
<g id="node5" class="node">
<title>l21</title>
<ellipse fill="#ff0000" stroke="#ffffff" stroke-width="15" cx="150" cy="-118" rx="18" ry="18"/>
</g>
<!-- l10&#45;&gt;l21 -->
<g id="edge2" class="edge">
<title>l10&#45;&gt;l21</title>
<path fill="none" stroke="#000000" d="M51.8708,-100.2352C71.9926,-103.878 104.7536,-109.8088 126.8271,-113.8049"/>
<polygon fill="#000000" stroke="#000000" points="126.686,-115.5577 131.9178,-114.7265 127.3095,-112.1137 126.686,-115.5577"/>
</g>
<!-- l22 -->
<g id="node6" class="node">
<title>l22</title>
<ellipse fill="#ff0000" stroke="#ffffff" stroke-width="15" cx="150" cy="-76" rx="18" ry="18"/>
</g>
<!-- l10&#45;&gt;l22 -->
<g id="edge3" class="edge">
<title>l10&#45;&gt;l22</title>
<path fill="none" stroke="#000000" d="M51.8708,-93.7648C71.9926,-90.122 104.7536,-84.1912 126.8271,-80.1951"/>
<polygon fill="#000000" stroke="#000000" points="127.3095,-81.8863 131.9178,-79.2735 126.686,-78.4423 127.3095,-81.8863"/>
</g>
<!-- l23 -->
<g id="node7" class="node">
<title>l23</title>
<ellipse fill="#ff0000" stroke="#ffffff" stroke-width="15" cx="150" cy="-34" rx="18" ry="18"/>
</g>
<!-- l10&#45;&gt;l23 -->
<g id="edge4" class="edge">
<title>l10&#45;&gt;l23</title>
<path fill="none" stroke="#000000" d="M50.1293,-88.2401C70.8197,-77.0031 106.7319,-57.499 129.3852,-45.196"/>
<polygon fill="#000000" stroke="#000000" points="130.4491,-46.6097 134.0077,-42.6855 128.7786,-43.534 130.4491,-46.6097"/>
</g>
<!-- l11 -->
<g id="node2" class="node">
<title>l11</title>
<ellipse fill="#000000" stroke="#ffffff" stroke-width="15" cx="34" cy="-55" rx="18" ry="18"/>
</g>
<!-- l11&#45;&gt;l20 -->
<g id="edge5" class="edge">
<title>l11&#45;&gt;l20</title>
<path fill="none" stroke="#000000" d="M47.7622,-67.4572C68.98,-86.663 109.6441,-123.471 132.7813,-144.4141"/>
<polygon fill="#000000" stroke="#000000" points="131.7323,-145.8251 136.6137,-147.8831 134.0811,-143.2302 131.7323,-145.8251"/>
</g>
<!-- l11&#45;&gt;l21 -->
<g id="edge6" class="edge">
<title>l11&#45;&gt;l21</title>
<path fill="none" stroke="#000000" d="M50.1293,-63.7599C70.8197,-74.9969 106.7319,-94.501 129.3852,-106.804"/>
<polygon fill="#000000" stroke="#000000" points="128.7786,-108.466 134.0077,-109.3145 130.4491,-105.3903 128.7786,-108.466"/>
</g>
<!-- l11&#45;&gt;l22 -->
<g id="edge7" class="edge">
<title>l11&#45;&gt;l22</title>
<path fill="none" stroke="#000000" d="M51.8708,-58.2352C71.9926,-61.878 104.7536,-67.8088 126.8271,-71.8049"/>
<polygon fill="#000000" stroke="#000000" points="126.686,-73.5577 131.9178,-72.7265 127.3095,-70.1137 126.686,-73.5577"/>
</g>
<!-- l11&#45;&gt;l23 -->
<g id="edge8" class="edge">
<title>l11&#45;&gt;l23</title>
<path fill="none" stroke="#000000" d="M51.8708,-51.7648C71.9926,-48.122 104.7536,-42.1912 126.8271,-38.1951"/>
<polygon fill="#000000" stroke="#000000" points="127.3095,-39.8863 131.9178,-37.2735 126.686,-36.4423 127.3095,-39.8863"/>
</g>
<!-- l12 -->
<g id="node3" class="node">
<title>l12</title>
<ellipse fill="#000000" stroke="#ffffff" stroke-width="15" cx="34" cy="-139" rx="18" ry="18"/>
</g>
<!-- l12&#45;&gt;l20 -->
<g id="edge9" class="edge">
<title>l12&#45;&gt;l20</title>
<path fill="none" stroke="#000000" d="M51.8708,-142.2352C71.9926,-145.878 104.7536,-151.8088 126.8271,-155.8049"/>
<polygon fill="#000000" stroke="#000000" points="126.686,-157.5577 131.9178,-156.7265 127.3095,-154.1137 126.686,-157.5577"/>
</g>
<!-- l12&#45;&gt;l21 -->
<g id="edge10" class="edge">
<title>l12&#45;&gt;l21</title>
<path fill="none" stroke="#000000" d="M51.8708,-135.7648C71.9926,-132.122 104.7536,-126.1912 126.8271,-122.1951"/>
<polygon fill="#000000" stroke="#000000" points="127.3095,-123.8863 131.9178,-121.2735 126.686,-120.4423 127.3095,-123.8863"/>
</g>
<!-- l12&#45;&gt;l22 -->
<g id="edge11" class="edge">
<title>l12&#45;&gt;l22</title>
<path fill="none" stroke="#000000" d="M50.1293,-130.2401C70.8197,-119.0031 106.7319,-99.499 129.3852,-87.196"/>
<polygon fill="#000000" stroke="#000000" points="130.4491,-88.6097 134.0077,-84.6855 128.7786,-85.534 130.4491,-88.6097"/>
</g>
<!-- l12&#45;&gt;l23 -->
<g id="edge12" class="edge">
<title>l12&#45;&gt;l23</title>
<path fill="none" stroke="#000000" d="M47.7622,-126.5428C68.98,-107.337 109.6441,-70.529 132.7813,-49.5859"/>
<polygon fill="#000000" stroke="#000000" points="134.0811,-50.7698 136.6137,-46.1169 131.7323,-48.1749 134.0811,-50.7698"/>
</g>
<!-- l30 -->
<g id="node8" class="node">
<title>l30</title>
<ellipse fill="#000000" stroke="#ffffff" stroke-width="15" cx="272" cy="-97" rx="18" ry="18"/>
</g>
<!-- l20&#45;&gt;l30 -->
<g id="edge13" class="edge">
<title>l20&#45;&gt;l30</title>
<path fill="none" stroke="#000000" d="M166.2007,-151.6341C188.0765,-140.3376 227.0838,-120.1944 251.1317,-107.7762"/>
<polygon fill="#000000" stroke="#000000" points="252.0927,-109.2496 255.7323,-105.4005 250.4867,-106.1398 252.0927,-109.2496"/>
</g>
<!-- l21&#45;&gt;l30 -->
<g id="edge14" class="edge">
<title>l21&#45;&gt;l30</title>
<path fill="none" stroke="#000000" d="M167.7398,-114.9464C189.2439,-111.2449 225.5254,-104.9997 249.1159,-100.9391"/>
<polygon fill="#000000" stroke="#000000" points="249.6081,-102.6302 254.2387,-100.0573 249.0143,-99.1809 249.6081,-102.6302"/>
</g>
<!-- l22&#45;&gt;l30 -->
<g id="edge15" class="edge">
<title>l22&#45;&gt;l30</title>
<path fill="none" stroke="#000000" d="M167.7398,-79.0536C189.2439,-82.7551 225.5254,-89.0003 249.1159,-93.0609"/>
<polygon fill="#000000" stroke="#000000" points="249.0143,-94.8191 254.2387,-93.9427 249.6081,-91.3698 249.0143,-94.8191"/>
</g>
<!-- l23&#45;&gt;l30 -->
<g id="edge16" class="edge">
<title>l23&#45;&gt;l30</title>
<path fill="none" stroke="#000000" d="M166.2007,-42.3659C188.0765,-53.6624 227.0838,-73.8056 251.1317,-86.2238"/>
<polygon fill="#000000" stroke="#000000" points="250.4867,-87.8602 255.7323,-88.5995 252.0927,-84.7504 250.4867,-87.8602"/>
</g>
</g>
</svg>
