<?xml version="1.0" encoding="UTF-8" standalone="no"?>
<!DOCTYPE svg PUBLIC "-//W3C//DTD SVG 1.1//EN"
 "http://www.w3.org/Graphics/SVG/1.1/DTD/svg11.dtd">
<!-- Generated by graphviz version 2.40.1 (20161225.0304)
 -->
<!-- Title: G Pages: 1 -->
<svg width="191pt" height="351pt"
 viewBox="0.00 0.00 191.00 351.00" xmlns="http://www.w3.org/2000/svg" xmlns:xlink="http://www.w3.org/1999/xlink">
<g id="graph0" class="graph" transform="scale(1 1) rotate(0) translate(4 347)">
<title>G</title>
<polygon fill="#ffffff" stroke="transparent" points="-4,4 -4,-347 187,-347 187,4 -4,4"/>
<g id="clust1" class="cluster">
<title>cluster_0</title>
<polygon fill="none" stroke="transparent" points="8,-8 8,-335 61,-335 61,-8 8,-8"/>
<text text-anchor="middle" x="34.5" y="-319.8" font-family="Hilda 10" font-size="14.00" fill="#000000">Input</text>
</g>
<g id="clust2" class="cluster">
<title>cluster_1</title>
<polygon fill="none" stroke="transparent" points="117,-50 117,-293 182,-293 182,-50 117,-50"/>
<text text-anchor="middle" x="149.5" y="-277.8" font-family="Hilda 10" font-size="14.00" fill="#000000">Output</text>
</g>
<!-- l10 -->
<g id="node1" class="node">
<title>l10</title>
<ellipse fill="#000000" stroke="#ffffff" stroke-width="15" cx="34" cy="-118" rx="18" ry="18"/>
</g>
<!-- l20 -->
<g id="node8" class="node">
<title>l20</title>
<ellipse fill="#000000" stroke="#ffffff" stroke-width="15" cx="149" cy="-118" rx="18" ry="18"/>
</g>
<!-- l10&#45;&gt;l20 -->
<g id="edge1" class="edge">
<title>l10&#45;&gt;l20</title>
<path fill="none" stroke="#000000" d="M52.2221,-118C72.1574,-118 104.1584,-118 125.8552,-118"/>
<polygon fill="#000000" stroke="#000000" points="125.8632,-119.7501 130.8632,-118 125.8631,-116.2501 125.8632,-119.7501"/>
</g>
<!-- l21 -->
<g id="node9" class="node">
<title>l21</title>
<ellipse fill="#000000" stroke="#ffffff" stroke-width="15" cx="149" cy="-76" rx="18" ry="18"/>
</g>
<!-- l10&#45;&gt;l21 -->
<g id="edge2" class="edge">
<title>l10&#45;&gt;l21</title>
<path fill="none" stroke="#000000" d="M50.9686,-111.8028C71.1825,-104.4203 104.9935,-92.0719 127.1464,-83.9813"/>
<polygon fill="#000000" stroke="#000000" points="127.8655,-85.5818 131.9617,-82.2227 126.6648,-82.2942 127.8655,-85.5818"/>
</g>
<!-- l22 -->
<g id="node10" class="node">
<title>l22</title>
<ellipse fill="#000000" stroke="#ffffff" stroke-width="15" cx="149" cy="-244" rx="18" ry="18"/>
</g>
<!-- l10&#45;&gt;l22 -->
<g id="edge3" class="edge">
<title>l10&#45;&gt;l22</title>
<path fill="none" stroke="#000000" d="M46.307,-131.4842C67.3173,-154.5041 110.0746,-201.3513 133.2384,-226.7308"/>
<polygon fill="#000000" stroke="#000000" points="132.1182,-228.0994 136.7815,-230.6127 134.7034,-225.7399 132.1182,-228.0994"/>
</g>
<!-- l23 -->
<g id="node11" class="node">
<title>l23</title>
<ellipse fill="#000000" stroke="#ffffff" stroke-width="15" cx="149" cy="-202" rx="18" ry="18"/>
</g>
<!-- l10&#45;&gt;l23 -->
<g id="edge4" class="edge">
<title>l10&#45;&gt;l23</title>
<path fill="none" stroke="#000000" d="M48.5648,-128.6387C69.2757,-143.7666 107.2524,-171.5061 130.1064,-188.1995"/>
<polygon fill="#000000" stroke="#000000" points="129.1203,-189.6463 134.1902,-191.1824 131.1848,-186.82 129.1203,-189.6463"/>
</g>
<!-- l24 -->
<g id="node12" class="node">
<title>l24</title>
<ellipse fill="#000000" stroke="#ffffff" stroke-width="15" cx="149" cy="-160" rx="18" ry="18"/>
</g>
<!-- l10&#45;&gt;l24 -->
<g id="edge5" class="edge">
<title>l10&#45;&gt;l24</title>
<path fill="none" stroke="#000000" d="M50.9686,-124.1972C71.1825,-131.5797 104.9935,-143.9281 127.1464,-152.0187"/>
<polygon fill="#000000" stroke="#000000" points="126.6648,-153.7058 131.9617,-153.7773 127.8655,-150.4182 126.6648,-153.7058"/>
</g>
<!-- l11 -->
<g id="node2" class="node">
<title>l11</title>
<ellipse fill="#000000" stroke="#ffffff" stroke-width="15" cx="34" cy="-76" rx="18" ry="18"/>
</g>
<!-- l11&#45;&gt;l20 -->
<g id="edge6" class="edge">
<title>l11&#45;&gt;l20</title>
<path fill="none" stroke="#000000" d="M50.9686,-82.1972C71.1825,-89.5797 104.9935,-101.9281 127.1464,-110.0187"/>
<polygon fill="#000000" stroke="#000000" points="126.6648,-111.7058 131.9617,-111.7773 127.8655,-108.4182 126.6648,-111.7058"/>
</g>
<!-- l11&#45;&gt;l21 -->
<g id="edge7" class="edge">
<title>l11&#45;&gt;l21</title>
<path fill="none" stroke="#000000" d="M52.2221,-76C72.1574,-76 104.1584,-76 125.8552,-76"/>
<polygon fill="#000000" stroke="#000000" points="125.8632,-77.7501 130.8632,-76 125.8631,-74.2501 125.8632,-77.7501"/>
</g>
<!-- l11&#45;&gt;l22 -->
<g id="edge8" class="edge">
<title>l11&#45;&gt;l22</title>
<path fill="none" stroke="#000000" d="M44.2055,-90.9089C65.0384,-121.343 112.4472,-190.6011 135.6744,-224.533"/>
<polygon fill="#000000" stroke="#000000" points="134.3837,-225.7456 138.6521,-228.883 137.2718,-223.7686 134.3837,-225.7456"/>
</g>
<!-- l11&#45;&gt;l23 -->
<g id="edge9" class="edge">
<title>l11&#45;&gt;l23</title>
<path fill="none" stroke="#000000" d="M46.307,-89.4842C67.3173,-112.5041 110.0746,-159.3513 133.2384,-184.7308"/>
<polygon fill="#000000" stroke="#000000" points="132.1182,-186.0994 136.7815,-188.6127 134.7034,-183.7399 132.1182,-186.0994"/>
</g>
<!-- l11&#45;&gt;l24 -->
<g id="edge10" class="edge">
<title>l11&#45;&gt;l24</title>
<path fill="none" stroke="#000000" d="M48.5648,-86.6387C69.2757,-101.7666 107.2524,-129.5061 130.1064,-146.1995"/>
<polygon fill="#000000" stroke="#000000" points="129.1203,-147.6463 134.1902,-149.1824 131.1848,-144.82 129.1203,-147.6463"/>
</g>
<!-- l12 -->
<g id="node3" class="node">
<title>l12</title>
<ellipse fill="#000000" stroke="#ffffff" stroke-width="15" cx="34" cy="-34" rx="18" ry="18"/>
</g>
<!-- l12&#45;&gt;l20 -->
<g id="edge11" class="edge">
<title>l12&#45;&gt;l20</title>
<path fill="none" stroke="#000000" d="M48.5648,-44.6387C69.2757,-59.7666 107.2524,-87.5061 130.1064,-104.1995"/>
<polygon fill="#000000" stroke="#000000" points="129.1203,-105.6463 134.1902,-107.1824 131.1848,-102.82 129.1203,-105.6463"/>
</g>
<!-- l12&#45;&gt;l21 -->
<g id="edge12" class="edge">
<title>l12&#45;&gt;l21</title>
<path fill="none" stroke="#000000" d="M50.9686,-40.1972C71.1825,-47.5797 104.9935,-59.9281 127.1464,-68.0187"/>
<polygon fill="#000000" stroke="#000000" points="126.6648,-69.7058 131.9617,-69.7773 127.8655,-66.4182 126.6648,-69.7058"/>
</g>
<!-- l12&#45;&gt;l22 -->
<g id="edge13" class="edge">
<title>l12&#45;&gt;l22</title>
<path fill="none" stroke="#000000" d="M42.8329,-50.1297C63.4954,-87.8611 114.9554,-181.8317 137.7858,-223.5219"/>
<polygon fill="#000000" stroke="#000000" points="136.3579,-224.5579 140.2944,-228.1028 139.4277,-222.8768 136.3579,-224.5579"/>
</g>
<!-- l12&#45;&gt;l23 -->
<g id="edge14" class="edge">
<title>l12&#45;&gt;l23</title>
<path fill="none" stroke="#000000" d="M44.2055,-48.9089C65.0384,-79.343 112.4472,-148.6011 135.6744,-182.533"/>
<polygon fill="#000000" stroke="#000000" points="134.3837,-183.7456 138.6521,-186.883 137.2718,-181.7686 134.3837,-183.7456"/>
</g>
<!-- l12&#45;&gt;l24 -->
<g id="edge15" class="edge">
<title>l12&#45;&gt;l24</title>
<path fill="none" stroke="#000000" d="M46.307,-47.4842C67.3173,-70.5041 110.0746,-117.3513 133.2384,-142.7308"/>
<polygon fill="#000000" stroke="#000000" points="132.1182,-144.0994 136.7815,-146.6127 134.7034,-141.7399 132.1182,-144.0994"/>
</g>
<!-- l13 -->
<g id="node4" class="node">
<title>l13</title>
<ellipse fill="#000000" stroke="#ffffff" stroke-width="15" cx="34" cy="-286" rx="18" ry="18"/>
</g>
<!-- l13&#45;&gt;l20 -->
<g id="edge16" class="edge">
<title>l13&#45;&gt;l20</title>
<path fill="none" stroke="#000000" d="M44.2055,-271.0911C65.0384,-240.657 112.4472,-171.3989 135.6744,-137.467"/>
<polygon fill="#000000" stroke="#000000" points="137.2718,-138.2314 138.6521,-133.117 134.3837,-136.2544 137.2718,-138.2314"/>
</g>
<!-- l13&#45;&gt;l21 -->
<g id="edge17" class="edge">
<title>l13&#45;&gt;l21</title>
<path fill="none" stroke="#000000" d="M42.8329,-269.8703C63.4954,-232.1389 114.9554,-138.1683 137.7858,-96.4781"/>
<polygon fill="#000000" stroke="#000000" points="139.4277,-97.1232 140.2944,-91.8972 136.3579,-95.4421 139.4277,-97.1232"/>
</g>
<!-- l13&#45;&gt;l22 -->
<g id="edge18" class="edge">
<title>l13&#45;&gt;l22</title>
<path fill="none" stroke="#000000" d="M50.9686,-279.8028C71.1825,-272.4203 104.9935,-260.0719 127.1464,-251.9813"/>
<polygon fill="#000000" stroke="#000000" points="127.8655,-253.5818 131.9617,-250.2227 126.6648,-250.2942 127.8655,-253.5818"/>
</g>
<!-- l13&#45;&gt;l23 -->
<g id="edge19" class="edge">
<title>l13&#45;&gt;l23</title>
<path fill="none" stroke="#000000" d="M48.5648,-275.3613C69.2757,-260.2334 107.2524,-232.4939 130.1064,-215.8005"/>
<polygon fill="#000000" stroke="#000000" points="131.1848,-217.18 134.1902,-212.8176 129.1203,-214.3537 131.1848,-217.18"/>
</g>
<!-- l13&#45;&gt;l24 -->
<g id="edge20" class="edge">
<title>l13&#45;&gt;l24</title>
<path fill="none" stroke="#000000" d="M46.307,-272.5158C67.3173,-249.4959 110.0746,-202.6487 133.2384,-177.2692"/>
<polygon fill="#000000" stroke="#000000" points="134.7034,-178.2601 136.7815,-173.3873 132.1182,-175.9006 134.7034,-178.2601"/>
</g>
<!-- l14 -->
<g id="node5" class="node">
<title>l14</title>
<ellipse fill="#000000" stroke="#ffffff" stroke-width="15" cx="34" cy="-244" rx="18" ry="18"/>
</g>
<!-- l14&#45;&gt;l20 -->
<g id="edge21" class="edge">
<title>l14&#45;&gt;l20</title>
<path fill="none" stroke="#000000" d="M46.307,-230.5158C67.3173,-207.4959 110.0746,-160.6487 133.2384,-135.2692"/>
<polygon fill="#000000" stroke="#000000" points="134.7034,-136.2601 136.7815,-131.3873 132.1182,-133.9006 134.7034,-136.2601"/>
</g>
<!-- l14&#45;&gt;l21 -->
<g id="edge22" class="edge">
<title>l14&#45;&gt;l21</title>
<path fill="none" stroke="#000000" d="M44.2055,-229.0911C65.0384,-198.657 112.4472,-129.3989 135.6744,-95.467"/>
<polygon fill="#000000" stroke="#000000" points="137.2718,-96.2314 138.6521,-91.117 134.3837,-94.2544 137.2718,-96.2314"/>
</g>
<!-- l14&#45;&gt;l22 -->
<g id="edge23" class="edge">
<title>l14&#45;&gt;l22</title>
<path fill="none" stroke="#000000" d="M52.2221,-244C72.1574,-244 104.1584,-244 125.8552,-244"/>
<polygon fill="#000000" stroke="#000000" points="125.8632,-245.7501 130.8632,-244 125.8631,-242.2501 125.8632,-245.7501"/>
</g>
<!-- l14&#45;&gt;l23 -->
<g id="edge24" class="edge">
<title>l14&#45;&gt;l23</title>
<path fill="none" stroke="#000000" d="M50.9686,-237.8028C71.1825,-230.4203 104.9935,-218.0719 127.1464,-209.9813"/>
<polygon fill="#000000" stroke="#000000" points="127.8655,-211.5818 131.9617,-208.2227 126.6648,-208.2942 127.8655,-211.5818"/>
</g>
<!-- l14&#45;&gt;l24 -->
<g id="edge25" class="edge">
<title>l14&#45;&gt;l24</title>
<path fill="none" stroke="#000000" d="M48.5648,-233.3613C69.2757,-218.2334 107.2524,-190.4939 130.1064,-173.8005"/>
<polygon fill="#000000" stroke="#000000" points="131.1848,-175.18 134.1902,-170.8176 129.1203,-172.3537 131.1848,-175.18"/>
</g>
<!-- l15 -->
<g id="node6" class="node">
<title>l15</title>
<ellipse fill="#000000" stroke="#ffffff" stroke-width="15" cx="34" cy="-202" rx="18" ry="18"/>
</g>
<!-- l15&#45;&gt;l20 -->
<g id="edge26" class="edge">
<title>l15&#45;&gt;l20</title>
<path fill="none" stroke="#000000" d="M48.5648,-191.3613C69.2757,-176.2334 107.2524,-148.4939 130.1064,-131.8005"/>
<polygon fill="#000000" stroke="#000000" points="131.1848,-133.18 134.1902,-128.8176 129.1203,-130.3537 131.1848,-133.18"/>
</g>
<!-- l15&#45;&gt;l21 -->
<g id="edge27" class="edge">
<title>l15&#45;&gt;l21</title>
<path fill="none" stroke="#000000" d="M46.307,-188.5158C67.3173,-165.4959 110.0746,-118.6487 133.2384,-93.2692"/>
<polygon fill="#000000" stroke="#000000" points="134.7034,-94.2601 136.7815,-89.3873 132.1182,-91.9006 134.7034,-94.2601"/>
</g>
<!-- l15&#45;&gt;l22 -->
<g id="edge28" class="edge">
<title>l15&#45;&gt;l22</title>
<path fill="none" stroke="#000000" d="M50.9686,-208.1972C71.1825,-215.5797 104.9935,-227.9281 127.1464,-236.0187"/>
<polygon fill="#000000" stroke="#000000" points="126.6648,-237.7058 131.9617,-237.7773 127.8655,-234.4182 126.6648,-237.7058"/>
</g>
<!-- l15&#45;&gt;l23 -->
<g id="edge29" class="edge">
<title>l15&#45;&gt;l23</title>
<path fill="none" stroke="#000000" d="M52.2221,-202C72.1574,-202 104.1584,-202 125.8552,-202"/>
<polygon fill="#000000" stroke="#000000" points="125.8632,-203.7501 130.8632,-202 125.8631,-200.2501 125.8632,-203.7501"/>
</g>
<!-- l15&#45;&gt;l24 -->
<g id="edge30" class="edge">
<title>l15&#45;&gt;l24</title>
<path fill="none" stroke="#000000" d="M50.9686,-195.8028C71.1825,-188.4203 104.9935,-176.0719 127.1464,-167.9813"/>
<polygon fill="#000000" stroke="#000000" points="127.8655,-169.5818 131.9617,-166.2227 126.6648,-166.2942 127.8655,-169.5818"/>
</g>
<!-- l16 -->
<g id="node7" class="node">
<title>l16</title>
<ellipse fill="#000000" stroke="#ffffff" stroke-width="15" cx="34" cy="-160" rx="18" ry="18"/>
</g>
<!-- l16&#45;&gt;l20 -->
<g id="edge31" class="edge">
<title>l16&#45;&gt;l20</title>
<path fill="none" stroke="#000000" d="M50.9686,-153.8028C71.1825,-146.4203 104.9935,-134.0719 127.1464,-125.9813"/>
<polygon fill="#000000" stroke="#000000" points="127.8655,-127.5818 131.9617,-124.2227 126.6648,-124.2942 127.8655,-127.5818"/>
</g>
<!-- l16&#45;&gt;l21 -->
<g id="edge32" class="edge">
<title>l16&#45;&gt;l21</title>
<path fill="none" stroke="#000000" d="M48.5648,-149.3613C69.2757,-134.2334 107.2524,-106.4939 130.1064,-89.8005"/>
<polygon fill="#000000" stroke="#000000" points="131.1848,-91.18 134.1902,-86.8176 129.1203,-88.3537 131.1848,-91.18"/>
</g>
<!-- l16&#45;&gt;l22 -->
<g id="edge33" class="edge">
<title>l16&#45;&gt;l22</title>
<path fill="none" stroke="#000000" d="M48.5648,-170.6387C69.2757,-185.7666 107.2524,-213.5061 130.1064,-230.1995"/>
<polygon fill="#000000" stroke="#000000" points="129.1203,-231.6463 134.1902,-233.1824 131.1848,-228.82 129.1203,-231.6463"/>
</g>
<!-- l16&#45;&gt;l23 -->
<g id="edge34" class="edge">
<title>l16&#45;&gt;l23</title>
<path fill="none" stroke="#000000" d="M50.9686,-166.1972C71.1825,-173.5797 104.9935,-185.9281 127.1464,-194.0187"/>
<polygon fill="#000000" stroke="#000000" points="126.6648,-195.7058 131.9617,-195.7773 127.8655,-192.4182 126.6648,-195.7058"/>
</g>
<!-- l16&#45;&gt;l24 -->
<g id="edge35" class="edge">
<title>l16&#45;&gt;l24</title>
<path fill="none" stroke="#000000" d="M52.2221,-160C72.1574,-160 104.1584,-160 125.8552,-160"/>
<polygon fill="#000000" stroke="#000000" points="125.8632,-161.7501 130.8632,-160 125.8631,-158.2501 125.8632,-161.7501"/>
</g>
</g>
</svg>
